<svg width="16" height="16" viewBox="0 0 16 16" fill="none" xmlns="http://www.w3.org/2000/svg">
<path d="M14.75 7.7345V14.75C14.75 14.9489 14.671 15.1397 14.5303 15.2803C14.3897 15.421 14.1989 15.5 14 15.5H2C1.80109 15.5 1.61033 15.421 1.46967 15.2803C1.32902 15.1397 1.25 14.9489 1.25 14.75V7.7345C0.76574 7.18697 0.498918 6.48096 0.500003 5.75V1.25C0.500003 1.05109 0.579021 0.860322 0.719673 0.71967C0.860325 0.579018 1.05109 0.5 1.25 0.5H14.75C14.9489 0.5 15.1397 0.579018 15.2803 0.71967C15.421 0.860322 15.5 1.05109 15.5 1.25V5.75C15.5 6.5105 15.2165 7.205 14.75 7.7345ZM13.25 8.6555C12.7136 8.79329 12.1496 8.78021 11.6202 8.61768C11.0908 8.45516 10.6167 8.14952 10.25 7.7345C9.96877 8.05406 9.6226 8.30995 9.23459 8.48506C8.84659 8.66018 8.42569 8.75051 8 8.75C7.57431 8.75051 7.15342 8.66018 6.76541 8.48506C6.37741 8.30995 6.03124 8.05406 5.75 7.7345C5.38424 8.1507 4.9101 8.45718 4.38042 8.6198C3.85073 8.78241 3.2863 8.79477 2.75 8.6555V14H13.25V8.6555ZM9.5 5.75C9.5 5.55109 9.57902 5.36032 9.71967 5.21967C9.86033 5.07902 10.0511 5 10.25 5C10.4489 5 10.6397 5.07902 10.7803 5.21967C10.921 5.36032 11 5.55109 11 5.75C11 6.14782 11.158 6.52936 11.4393 6.81066C11.7206 7.09196 12.1022 7.25 12.5 7.25C12.8978 7.25 13.2794 7.09196 13.5607 6.81066C13.842 6.52936 14 6.14782 14 5.75V2H2V5.75C2 6.14782 2.15804 6.52936 2.43934 6.81066C2.72065 7.09196 3.10218 7.25 3.5 7.25C3.89783 7.25 4.27936 7.09196 4.56066 6.81066C4.84197 6.52936 5 6.14782 5 5.75C5 5.55109 5.07902 5.36032 5.21967 5.21967C5.36033 5.07902 5.55109 5 5.75 5C5.94892 5 6.13968 5.07902 6.28033 5.21967C6.42099 5.36032 6.5 5.55109 6.5 5.75C6.5 6.14782 6.65804 6.52936 6.93934 6.81066C7.22065 7.09196 7.60218 7.25 8 7.25C8.39783 7.25 8.77936 7.09196 9.06066 6.81066C9.34197 6.52936 9.5 6.14782 9.5 5.75Z" fill="#525866"/>
</svg>
