<svg width="38" height="38" viewBox="0 0 38 38" fill="none" xmlns="http://www.w3.org/2000/svg">
<path d="M13.5013 0.389627C6.26365 0.389627 0.375366 6.27785 0.375366 13.5155V24.4836C0.375366 31.7213 6.26363 37.6095 13.5013 37.6095H24.4694C31.707 37.6095 37.5954 31.7212 37.5954 24.4836V19.6156L31.7548 23.0832V24.4836C31.7548 28.5008 28.4866 31.769 24.4694 31.769H13.5013C9.48417 31.769 6.2159 28.5008 6.2159 24.4836V13.5155C6.2159 9.4983 9.48417 6.23016 13.5013 6.23016H24.4694C27.111 6.23016 29.572 7.70116 30.8473 10.005L18.8175 17.2966L15.4684 11.7712L14.1794 12.5525C14.1802 12.5539 14.1813 12.5552 14.1821 12.5566C14.5661 13.2005 14.3401 14.0429 13.6773 14.4382C13.0191 14.8306 12.1781 14.6339 11.7905 14.0005L10.4737 14.7986L16.8501 25.3187L37.5762 12.756L37.5566 12.4997C37.4281 10.822 36.9832 9.21484 36.2411 7.71362L36.2498 7.70836L35.8563 6.96884L35.8498 6.97276C33.5067 2.90084 29.1865 0.389618 24.4694 0.389618L13.5013 0.389627Z" fill="#375DFB"/>
</svg>
