<svg width="149" height="148" viewBox="0 0 149 148" fill="none" xmlns="http://www.w3.org/2000/svg">
<rect x="1" width="148" height="148" rx="74" fill="#F6F8FA"/>
<path d="M137 122.81C137 122.81 130.994 121.02 129.19 127C130.994 121.02 125 119.19 125 119.19C125 119.19 131.006 120.98 132.81 115C131.006 120.98 137 122.81 137 122.81Z" fill="white" stroke="#868C98" stroke-linecap="round" stroke-linejoin="round"/>
<path d="M12.1499 41.0001C12.1499 41.0001 7.0205 47.0177 13 52.1499C7.02039 47.0176 1.85024 53 1.85024 53C1.85024 53 6.97961 46.9824 1 41.8501C6.97961 46.9824 12.1499 41.0001 12.1499 41.0001Z" fill="white" stroke="#868C98" stroke-linecap="round" stroke-linejoin="round"/>
<path d="M41.7838 36.2745L25.5295 98.7656C24.6527 102.137 26.6747 105.58 30.0458 106.457L108.297 126.811C111.668 127.688 115.112 125.666 115.988 122.295L132.243 59.8034C133.12 56.4322 131.098 52.9885 127.726 52.1117L49.4755 31.7581C46.1044 30.8813 42.6607 32.9033 41.7838 36.2745Z" fill="#E2E4E9" stroke="#868C98" stroke-linecap="round" stroke-linejoin="round"/>
<path d="M59.9192 24.5336C59.9317 25.266 59.8444 26.0362 59.6412 26.8172C59.1488 28.7228 58.0701 30.2364 56.8532 31.1238C56.2457 31.5694 55.6113 31.8593 55.0003 31.9984C54.3868 32.1368 53.8003 32.1336 53.2118 31.9819C51.8602 31.6304 50.4795 32.441 50.128 33.7926C49.7764 35.1442 50.5871 36.5249 51.9387 36.8765C53.3415 37.2428 54.7808 37.2376 56.1257 36.929C58.1485 36.465 59.9591 35.3488 61.4067 33.8199C62.8548 32.2878 63.9528 30.3279 64.5356 28.0903C64.8537 26.8675 64.996 25.6412 64.9758 24.4477C64.9521 23.0513 63.8008 21.9386 62.4045 21.9623C61.0082 21.9861 59.8955 23.1372 59.9192 24.5336Z" fill="#868C98"/>
<path d="M87.0203 31.9882C87.0003 32.5975 86.9116 33.2287 86.7455 33.8671C86.2531 35.7727 85.1744 37.2863 83.9576 38.1737C83.3501 38.6193 82.7157 38.9092 82.1047 39.0483C81.4912 39.1867 80.9047 39.1835 80.3162 39.0319C78.9647 38.6803 77.584 39.491 77.2324 40.8426C76.8808 42.1942 77.6915 43.5749 79.0431 43.9264C80.4459 44.2927 81.8852 44.2876 83.2301 43.979C85.2529 43.515 87.0636 42.3988 88.5112 40.8698C89.9592 39.3377 91.0573 37.3778 91.6401 35.1403C91.9001 34.1407 92.0426 33.1388 92.0751 32.1545C92.121 30.7587 91.0266 29.5899 89.6308 29.544C88.235 29.4981 87.0662 30.5923 87.0203 31.9882Z" fill="#868C98"/>
<path d="M114.105 38.1565C114.173 39.0276 114.097 39.9646 113.849 40.9171C113.357 42.8227 112.278 44.3363 111.061 45.2237C110.454 45.6693 109.82 45.9592 109.209 46.0983C108.595 46.2367 108.009 46.2335 107.42 46.0819C106.069 45.7303 104.688 46.541 104.336 47.8926C103.985 49.2442 104.795 50.6249 106.147 50.9764C107.55 51.3427 108.989 51.3376 110.334 51.029C112.357 50.565 114.167 49.4488 115.615 47.9198C117.063 46.3877 118.161 44.4278 118.744 42.1903C119.132 40.6986 119.259 39.2022 119.147 37.7656C119.039 36.3732 117.823 35.3319 116.431 35.4399C115.038 35.5478 113.997 36.7641 114.105 38.1565Z" fill="#868C98"/>
<path d="M125.623 50.4964L109.369 112.988C108.492 116.36 105.049 118.381 101.677 117.504L23.4217 97.1491C20.0541 96.2731 18.0329 92.8307 18.91 89.4585L35.1643 26.9674C36.0415 23.5952 39.4839 21.574 42.8514 22.4499L121.107 42.8047C124.479 43.6818 126.5 47.1243 125.623 50.4964Z" fill="white" stroke="#868C98" stroke-linecap="round" stroke-linejoin="round"/>
<path d="M125.624 50.4965L122.901 60.9631L32.4423 37.4342L35.1647 26.9675C36.0418 23.5954 39.4842 21.5741 42.8518 22.45L121.107 42.8048C124.479 43.6819 126.501 47.1243 125.624 50.4965Z" fill="#CDD0D5" stroke="#868C98" stroke-linecap="round" stroke-linejoin="round"/>
<path d="M53.212 31.9818C52.6242 31.8276 52.1104 31.5446 51.6422 31.1248C50.9439 30.4987 50.363 29.5383 50.062 28.3491C49.7598 27.1628 49.7417 25.7673 50.114 24.339C50.6064 22.4333 51.6851 20.9198 52.902 20.0323C53.5094 19.5868 54.1439 19.2968 54.7549 19.1577C55.3684 19.0194 55.9549 19.0225 56.5433 19.1742C57.0115 19.2966 57.4301 19.5011 57.8195 19.7902C58.4008 20.2225 58.9161 20.8582 59.2934 21.6725C59.6704 22.4845 59.9018 23.4679 59.9193 24.5334C59.943 25.9298 61.0943 27.0425 62.4906 27.0188C63.8869 26.9951 64.9998 25.8439 64.976 24.4475C64.9349 22.1337 64.2912 19.935 63.0819 18.1148C62.4768 17.2063 61.7266 16.3941 60.8401 15.734C59.9549 15.0739 58.9314 14.569 57.8164 14.2797C56.4136 13.9134 54.9743 13.9185 53.6294 14.2271C51.6066 14.6911 49.7959 15.8073 48.3483 17.3363C46.9003 18.8684 45.8022 20.8283 45.2194 23.0658C44.4464 26.0501 44.705 29.0482 45.8514 31.5627C46.4263 32.8187 47.2303 33.9568 48.2569 34.8822C49.281 35.8069 50.5354 36.5127 51.9388 36.8764C53.2904 37.2279 54.6711 36.4173 55.0227 35.0657C55.3742 33.7141 54.5636 32.3334 53.212 31.9818Z" fill="#868C98"/>
<path d="M80.3158 39.0317C79.728 38.8774 79.2143 38.5945 78.746 38.1746C78.0477 37.5486 77.4669 36.5882 77.1658 35.3989C76.8637 34.2126 76.8455 32.8171 77.2178 31.3888C77.7103 29.4832 78.789 27.9697 80.0058 27.0822C80.6133 26.6366 81.2477 26.3467 81.8587 26.2076C82.4722 26.0692 83.0587 26.0724 83.6472 26.2241C84.1372 26.3523 84.5735 26.5704 84.978 26.8816C85.5817 27.3466 86.1122 28.0366 86.4832 28.9167C86.8541 29.7943 87.0579 30.8528 87.02 31.9882C86.9741 33.384 88.0684 34.5527 89.4643 34.5986C90.8601 34.6445 92.0288 33.5501 92.0746 32.1543C92.1529 29.7096 91.5622 27.3677 90.3529 25.424C89.7476 24.4538 88.9832 23.5845 88.0682 22.8781C87.1546 22.1719 86.0879 21.6325 84.9203 21.3296C83.5175 20.9633 82.0782 20.9685 80.7333 21.277C78.7105 21.7411 76.8998 22.8572 75.4522 24.3862C74.0041 25.9183 72.9061 27.8782 72.3233 30.1158C71.5503 33.1 71.8089 36.0981 72.9553 38.6126C73.5302 39.8686 74.3341 41.0067 75.3608 41.9321C76.3849 42.8569 77.6392 43.5627 79.0427 43.9263C80.3943 44.2779 81.775 43.4672 82.1265 42.1156C82.4781 40.764 81.6674 39.3833 80.3158 39.0317Z" fill="#868C98"/>
<path d="M107.42 46.0818C106.832 45.9275 106.319 45.6445 105.85 45.2247C105.152 44.5987 104.571 43.6383 104.27 42.449C103.968 41.2627 103.95 39.8672 104.322 38.4389C104.815 36.5333 105.893 35.0197 107.11 34.1323C107.718 33.6867 108.352 33.3968 108.963 33.2577C109.577 33.1193 110.163 33.1225 110.752 33.2742C111.193 33.3896 111.591 33.5783 111.961 33.8419C112.515 34.2362 113.011 34.8095 113.391 35.5469C113.771 36.2822 114.03 37.1763 114.105 38.1564C114.213 39.5488 115.429 40.5901 116.822 40.4821C118.214 40.3742 119.255 39.1579 119.147 37.7655C118.979 35.6118 118.281 33.5836 117.079 31.9097C116.477 31.0742 115.747 30.3293 114.896 29.7233C114.047 29.1173 113.076 28.6526 112.025 28.3796C110.622 28.0134 109.183 28.0185 107.838 28.3271C105.815 28.7911 104.004 29.9073 102.557 31.4363C101.109 32.9684 100.011 34.9283 99.4277 37.1658C98.6547 40.1501 98.9133 43.1482 100.06 45.6626C100.635 46.9187 101.439 48.0567 102.465 48.9821C103.489 49.9069 104.744 50.6127 106.147 50.9764C107.499 51.3279 108.879 50.5172 109.231 49.1656C109.583 47.814 108.772 46.4334 107.42 46.0818Z" fill="#868C98"/>
<path d="M74.1185 134.316L32.2831 123.325C32.1667 123.295 32.0589 123.259 31.9511 123.224C31.9424 123.229 31.9356 123.227 31.9305 123.218C31.7968 123.198 31.6666 123.163 31.5365 123.129C27.153 121.978 24.5371 117.498 25.6887 113.114C26.3868 110.457 28.3121 108.451 30.6986 107.533C32.2379 106.942 33.9777 106.813 35.7038 107.266L77.9868 112.399C72.6336 111.901 67.5617 115.321 66.1529 120.684C64.5875 126.643 68.1527 132.748 74.1185 134.316Z" fill="#CDD0D5" stroke="#868C98" stroke-linecap="round" stroke-linejoin="round"/>
<path d="M98.4185 85.6512L87.7488 126.357C86.1834 132.316 80.0775 135.881 74.1186 134.316C68.1529 132.748 64.5876 126.642 66.153 120.684C67.5618 115.321 72.6337 111.901 77.9869 112.399L35.7039 107.266C33.9778 106.813 32.238 106.942 30.6987 107.533L40.4257 70.4165C41.2048 67.4508 44.2404 65.6783 47.1993 66.4556L94.4663 78.8725C97.432 79.6516 99.1977 82.6854 98.4185 85.6512Z" fill="#F6F8FA" stroke="#868C98" stroke-linecap="round" stroke-linejoin="round"/>
<path d="M62.0386 97.1774L77.0014 88.4504C77.5808 88.1126 78.3243 88.3083 78.6621 88.8876C79 89.4669 78.8043 90.2104 78.225 90.5483L63.2622 99.2752C62.6829 99.6131 61.9393 99.4174 61.6015 98.838C61.2636 98.2587 61.4593 97.5152 62.0386 97.1774Z" fill="#868C98"/>
<path d="M55.6088 93.5236L58.7695 99.0321L64.4738 95.7591C65.0555 95.4253 65.7976 95.6264 66.1314 96.208C66.4651 96.7897 66.2641 97.5318 65.6824 97.8656L58.9249 101.743C58.3432 102.077 57.6011 101.876 57.2673 101.294L53.5023 94.7322C53.1685 94.1505 53.3695 93.4084 53.9512 93.0746C54.5329 92.7408 55.2751 92.9419 55.6088 93.5236Z" fill="#868C98"/>
</svg>
