<svg width="9" height="10" viewBox="0 0 9 10" fill="none" xmlns="http://www.w3.org/2000/svg">
<path d="M0.814003 0.0792483L8.695 4.67675C8.75148 4.70981 8.79832 4.75708 8.83088 4.81385C8.86343 4.87062 8.88055 4.93493 8.88055 5.00037C8.88055 5.06582 8.86343 5.13012 8.83088 5.18689C8.79832 5.24367 8.75148 5.29094 8.695 5.324L0.814003 9.9215C0.756904 9.95482 0.692011 9.97245 0.6259 9.97261C0.55979 9.97277 0.494813 9.95545 0.437554 9.9224C0.380295 9.88936 0.33279 9.84176 0.299854 9.78444C0.266917 9.72712 0.249719 9.66211 0.250003 9.596V0.403248C0.249984 0.337265 0.267375 0.272446 0.300419 0.215334C0.333464 0.158222 0.380993 0.11084 0.438207 0.0779727C0.495421 0.0451051 0.560294 0.0279154 0.626277 0.0281394C0.692259 0.0283634 0.757014 0.045993 0.814003 0.0792483Z" fill="#525866"/>
</svg>
