<svg width="14" height="16" viewBox="0 0 14 16" fill="none" xmlns="http://www.w3.org/2000/svg">
<path d="M3.25 2V0.5H10.75V2H13.0052C13.4163 2 13.75 2.33375 13.75 2.74475V14.7552C13.7498 14.9527 13.6713 15.142 13.5316 15.2816C13.392 15.4213 13.2027 15.4998 13.0052 15.5H0.99475C0.797291 15.4998 0.607976 15.4213 0.468351 15.2816C0.328727 15.142 0.250199 14.9527 0.25 14.7552V2.74475C0.25 2.33375 0.58375 2 0.99475 2H3.25ZM3.25 3.5H1.75V14H12.25V3.5H10.75V5H3.25V3.5ZM4.75 2V3.5H9.25V2H4.75Z" fill="#525866"/>
</svg>
