<svg width="17" height="17" viewBox="0 0 17 17" fill="none" xmlns="http://www.w3.org/2000/svg">
<path d="M7.25 0.40725C7.4975 0.3855 7.74725 0.375 8 0.375C12.7633 0.375 16.625 4.23675 16.625 9C16.625 9.25275 16.6145 9.5025 16.5928 9.75H15.4633C15.0868 13.5398 11.8888 16.5 8 16.5C3.85775 16.5 0.5 13.1423 0.5 9C0.5 5.11125 3.46025 1.91325 7.25 1.5375V0.4065V0.40725ZM7.25 9.75V3.0465C5.73703 3.23901 4.35414 4.0004 3.38239 5.17591C2.41064 6.35143 1.92296 7.85285 2.01847 9.37502C2.11397 10.8972 2.7855 12.3259 3.89656 13.3707C5.00762 14.4155 6.47484 14.9981 8 15C9.46146 15 10.8727 14.4666 11.9688 13.5C13.0649 12.5334 13.7707 11.2 13.9535 9.75H7.25ZM15.086 8.25C14.9141 6.62843 14.1913 5.11485 13.0382 3.96179C11.8852 2.80874 10.3716 2.08594 8.75 1.914V8.25H15.086Z" fill="#525866"/>
</svg>
