<svg width="15" height="16" viewBox="0 0 15 16" fill="none" xmlns="http://www.w3.org/2000/svg">
<path d="M3.371 5.25001L5.273 7.15201L4.2125 8.21251L0.5 4.50001L4.2125 0.787506L5.273 1.84801L3.371 3.75001H8.75C10.3413 3.75001 11.8674 4.38215 12.9926 5.50737C14.1179 6.63258 14.75 8.15871 14.75 9.75001C14.75 11.3413 14.1179 12.8674 12.9926 13.9926C11.8674 15.1179 10.3413 15.75 8.75 15.75H2V14.25H8.75C9.94347 14.25 11.0881 13.7759 11.932 12.932C12.7759 12.0881 13.25 10.9435 13.25 9.75001C13.25 8.55653 12.7759 7.41194 11.932 6.56803C11.0881 5.72411 9.94347 5.25001 8.75 5.25001H3.371Z" fill="#525866"/>
</svg>
