<svg width="16" height="16" viewBox="0 0 16 16" fill="none" xmlns="http://www.w3.org/2000/svg">
<path d="M1.50498 11.75C1.18794 11.2017 0.941483 10.6156 0.771484 10.0055C1.14146 9.81733 1.45218 9.53047 1.66926 9.17667C1.88633 8.82288 2.00131 8.41592 2.00146 8.00084C2.00162 7.58575 1.88695 7.17872 1.67014 6.82475C1.45332 6.47079 1.14282 6.18371 0.772984 5.99525C1.11201 4.76937 1.75753 3.64997 2.64873 2.7425C2.9968 2.9688 3.4007 3.09438 3.81572 3.10534C4.23074 3.1163 4.6407 3.01223 5.00023 2.80463C5.35977 2.59703 5.65485 2.294 5.85283 1.92908C6.05081 1.56417 6.14396 1.15159 6.12198 0.737005C7.35357 0.418721 8.64591 0.419237 9.87724 0.738505C9.85545 1.15308 9.94879 1.5656 10.1469 1.93041C10.3451 2.29522 10.6403 2.59811 10.9999 2.80555C11.3595 3.01299 11.7694 3.11689 12.1844 3.10577C12.5994 3.09464 13.0033 2.96892 13.3512 2.7425C13.7855 3.185 14.171 3.68825 14.495 4.25C14.8197 4.81175 15.0627 5.3975 15.2285 5.9945C14.8585 6.18268 14.5478 6.46953 14.3307 6.82333C14.1136 7.17713 13.9987 7.58408 13.9985 7.99917C13.9984 8.41425 14.113 8.82129 14.3298 9.17525C14.5466 9.52921 14.8571 9.8163 15.227 10.0048C14.888 11.2306 14.2424 12.35 13.3512 13.2575C13.0032 13.0312 12.5993 12.9056 12.1843 12.8947C11.7692 12.8837 11.3593 12.9878 10.9997 13.1954C10.6402 13.403 10.3451 13.706 10.1471 14.0709C9.94916 14.4358 9.856 14.8484 9.87799 15.263C8.6464 15.5813 7.35406 15.5808 6.12273 15.2615C6.14452 14.8469 6.05118 14.4344 5.85305 14.0696C5.65492 13.7048 5.35972 13.4019 5.00011 13.1945C4.64051 12.987 4.23053 12.8831 3.81553 12.8942C3.40053 12.9054 2.99671 13.0311 2.64873 13.2575C2.20548 12.8052 1.82118 12.2987 1.50498 11.75ZM5.74998 11.897C6.5492 12.358 7.15012 13.0978 7.43748 13.9745C7.81173 14.0098 8.18748 14.0105 8.56173 13.9753C8.84929 13.0984 9.45048 12.3586 10.25 11.8978C11.0489 11.4355 11.9904 11.2846 12.8937 11.474C13.1112 11.168 13.2987 10.8418 13.4547 10.5005C12.8393 9.81308 12.4993 8.92266 12.5 8C12.5 7.055 12.8525 6.17226 13.4547 5.49951C13.2976 5.15837 13.1093 4.83248 12.8922 4.526C11.9894 4.71524 11.0486 4.56461 10.25 4.103C9.45076 3.64203 8.84985 2.90224 8.56248 2.0255C8.18823 1.99025 7.81248 1.9895 7.43823 2.02475C7.15068 2.90161 6.54949 3.64142 5.74998 4.10225C4.95107 4.56449 4.00959 4.71539 3.10623 4.526C2.88916 4.83222 2.70133 5.15815 2.54523 5.49951C3.16066 6.18692 3.50065 7.07735 3.49998 8C3.49998 8.945 3.14748 9.82775 2.54523 10.5005C2.70234 10.8416 2.89064 11.1675 3.10773 11.474C4.01052 11.2848 4.95139 11.4354 5.74998 11.897ZM7.99998 10.25C7.40325 10.25 6.83095 10.013 6.40899 9.59099C5.98704 9.16904 5.74998 8.59674 5.74998 8C5.74998 7.40327 5.98704 6.83097 6.40899 6.40901C6.83095 5.98706 7.40325 5.75 7.99998 5.75C8.59672 5.75 9.16902 5.98706 9.59097 6.40901C10.0129 6.83097 10.25 7.40327 10.25 8C10.25 8.59674 10.0129 9.16904 9.59097 9.59099C9.16902 10.013 8.59672 10.25 7.99998 10.25ZM7.99998 8.75C8.1989 8.75 8.38966 8.67099 8.53031 8.53033C8.67097 8.38968 8.74998 8.19892 8.74998 8C8.74998 7.80109 8.67097 7.61033 8.53031 7.46967C8.38966 7.32902 8.1989 7.25 7.99998 7.25C7.80107 7.25 7.61031 7.32902 7.46965 7.46967C7.329 7.61033 7.24998 7.80109 7.24998 8C7.24998 8.19892 7.329 8.38968 7.46965 8.53033C7.61031 8.67099 7.80107 8.75 7.99998 8.75Z" fill="#525866"/>
</svg>
